<?xml version="1.0" encoding="UTF-8"?>
<svg version="1.1" xmlns="http://www.w3.org/2000/svg" width="611" height="209">
<path d="M0 0 C72.64542652 0 72.64542652 0 88 15 C100.57704099 28.95610251 102.82446079 42.36381496 102.17480469 60.49951172 C101.3176488 72.76067175 93.90140613 83.9139241 85.19140625 92.21484375 C82.03684941 94.78459861 78.65504361 96.80417088 75.1015625 98.7734375 C72.87963452 99.95085229 72.87963452 99.95085229 71 102 C71.63164062 102.97195312 72.26328125 103.94390625 72.9140625 104.9453125 C78.51213401 113.57063087 84.08153208 122.21449312 89.625 130.875 C90.24068848 131.83164551 90.85637695 132.78829102 91.49072266 133.77392578 C92.0635498 134.67095215 92.63637695 135.56797852 93.2265625 136.4921875 C93.73783691 137.28995605 94.24911133 138.08772461 94.77587891 138.90966797 C96 141 96 141 97 144 C65.31093669 147.31029092 65.31093669 147.31029092 57.1328125 142.21289062 C52.7419959 137.49638158 50.37757829 131.83470569 48.12695312 125.86181641 C46.37041915 121.40122472 43.99071743 117.37092416 41.5625 113.25 C41.18391846 112.53013916 40.80533691 111.81027832 40.4152832 111.06860352 C39.23395255 108.81882024 39.23395255 108.81882024 37 106 C34.03 105.505 34.03 105.505 31 105 C31 117.87 31 130.74 31 144 C20.77 144 10.54 144 0 144 C0 96.48 0 48.96 0 0 Z M31 31 C31 45.19 31 59.38 31 74 C48.80150011 74.94677131 48.80150011 74.94677131 64 68 C69.50555326 61.8827186 70.51098735 57.42694492 70.3828125 49.26953125 C69.67144291 43.1938542 66.81310738 39.68044098 62.4375 35.625 C52.58430614 29.0562041 43.28608117 31 31 31 Z " fill="#FFFFFF" transform="translate(322,25)"/>
<path d="M0 0 C7.86194581 5.98274901 14.64676181 13.26908416 21.52734375 20.328125 C19.98816365 23.99564505 17.77248923 26.31393073 14.95703125 29.09375 C14.06113281 29.98320313 13.16523438 30.87265625 12.2421875 31.7890625 C11.30503906 32.70945313 10.36789063 33.62984375 9.40234375 34.578125 C8.44745738 35.52297356 7.49302516 36.46828133 6.5390625 37.4140625 C4.20625288 39.72330838 1.86890289 42.02775703 -0.47265625 44.328125 C-4.45073963 41.01036557 -8.17333805 37.66988876 -11.66015625 33.828125 C-19.04991035 26.31139918 -28.19906873 22.28842842 -38.66625977 22.03540039 C-51.4675558 21.92853602 -60.96237473 24.23133398 -70.47265625 33.328125 C-78.54756526 41.93070133 -82.910523 52.10890752 -82.68359375 64 C-81.50873056 76.9670085 -76.1331655 86.9784802 -66.23828125 95.34765625 C-57.07430539 101.9099949 -47.10708983 104.15069023 -35.9921875 102.953125 C-20.72773503 100.28975271 -11.7037902 91.14482465 -1.47265625 80.328125 C4.16189072 82.75084373 8.05475068 87.44636833 12.33984375 91.703125 C13.23638672 92.56679687 14.13292969 93.43046875 15.05664062 94.3203125 C16.32024414 95.57328125 16.32024414 95.57328125 17.609375 96.8515625 C18.38514893 97.61388184 19.16092285 98.37620117 19.96020508 99.16162109 C21.52734375 101.328125 21.52734375 101.328125 21.46142578 103.39379883 C20.39520839 105.60175503 19.22893716 107.01451331 17.5 108.75390625 C16.87786621 109.38240479 16.25573242 110.01090332 15.61474609 110.65844727 C14.94652832 111.31256592 14.27831055 111.96668457 13.58984375 112.640625 C12.90615723 113.31343506 12.2224707 113.98624512 11.51806641 114.67944336 C-3.38011308 129.11260311 -20.8976702 136.97254471 -41.78515625 136.765625 C-42.87602539 136.75732666 -43.96689453 136.74902832 -45.09082031 136.74047852 C-63.61830148 136.35437482 -78.61173294 129.58876409 -92.47265625 117.328125 C-93.08496094 116.80992187 -93.69726562 116.29171875 -94.328125 115.7578125 C-105.94991562 105.17320685 -114.59335 88.02421993 -115.67797852 72.36352539 C-115.77659484 69.07841629 -115.79469343 65.8021375 -115.78515625 62.515625 C-115.80126953 61.41669922 -115.81738281 60.31777344 -115.83398438 59.18554688 C-115.84031334 48.44530074 -113.76528307 38.74045627 -108.78515625 29.203125 C-108.438479 28.52644775 -108.09180176 27.84977051 -107.73461914 27.15258789 C-104.63799798 21.29534259 -100.94124733 16.22621257 -96.47265625 11.328125 C-95.95574219 10.7196875 -95.43882813 10.11125 -94.90625 9.484375 C-71.36868788 -16.47183385 -28.24018865 -19.09447195 0 0 Z " fill="#FFFFFF" transform="translate(125.47265625,32.671875)"/>
<path d="M0 0 C12.5559087 -2.72975286 27.94066425 -5.78031055 40 0 C52.8198323 10.17252405 60.45627368 27.48749451 67.79138184 41.75567627 C69.35035636 44.65058852 71.1050954 47.3152743 73 50 C75.99213002 47.18808432 78.21822882 44.3530064 80.3984375 40.87890625 C84.53082381 34.31187884 84.53082381 34.31187884 86.57836914 31.22290039 C90.10138799 25.86729278 93.27709012 20.63975516 95.72265625 14.6796875 C98.48355099 8.53088536 100.8854531 3.31550395 107 0 C120.09108588 -3.14839083 134.74634013 -1.24715605 148 0 C143.83508258 6.67004957 139.54240467 13.17233806 134.875 19.5 C129.76887324 26.49621544 124.82026436 33.58263119 119.95117188 40.74536133 C115.45427914 47.35506486 110.88474927 53.91133835 106.28344727 60.44873047 C105.1720417 62.02997517 104.08084501 63.6255439 103.00610352 65.23193359 C101.46044996 67.36466087 99.94393034 69.1694487 98.16381836 71.08447266 C87.43883984 83.37400104 88.49500832 97.4070472 88.78112793 112.91235352 C88.83392757 116.4258921 88.82375292 119.93927352 88.81835938 123.453125 C88.81231317 130.30549145 88.90835081 137.14549303 89 144 C78.77 144 68.54 144 58 144 C58.10183594 139.92398438 58.20367187 135.84796875 58.30859375 131.6484375 C58.34785921 128.32910693 58.37171975 125.01043081 58.3854599 121.69093323 C58.40391666 118.22318666 58.4473238 114.76054168 58.55883789 111.29443359 C59.15530177 91.97004888 56.59842027 79.32862496 43.91729736 64.33811951 C40.78824638 60.52228203 38.10413005 56.41839783 35.375 52.3125 C34.31203681 50.75504704 33.2471954 49.1988727 32.1796875 47.64453125 C30.03860811 44.51723776 27.89794788 41.38965835 25.7578125 38.26171875 C25.21962891 37.47514893 24.68144531 36.6885791 24.12695312 35.87817383 C23.04996612 34.30390456 21.97314085 32.72952464 20.89648438 31.1550293 C18.06821003 27.01958016 15.23608993 22.88683338 12.3984375 18.7578125 C11.80869141 17.89865234 11.21894531 17.03949219 10.61132812 16.15429688 C9.48360797 14.51155492 8.35476554 12.86958263 7.22460938 11.22851562 C6.71478516 10.48537109 6.20496094 9.74222656 5.6796875 8.9765625 C5.23351074 8.32768066 4.78733398 7.67879883 4.32763672 7.01025391 C2.81168736 4.71486461 1.4009064 2.36701334 0 0 Z " fill="#FFFFFF" transform="translate(165,25)"/>
<path d="M0 0 C10.23 0 20.46 0 31 0 C31 37.29 31 74.58 31 113 C45.85 113 60.7 113 76 113 C76 123.23 76 133.46 76 144 C50.92 144 25.84 144 0 144 C0 96.48 0 48.96 0 0 Z " fill="#FFFFFF" transform="translate(514,25)"/>
<path d="M0 0 C10.23 0 20.46 0 31 0 C31 47.52 31 95.04 31 144 C20.77 144 10.54 144 0 144 C0 96.48 0 48.96 0 0 Z " fill="#FFFFFF" transform="translate(453,25)"/>
</svg>
